<svg id="instagram-2" xmlns="http://www.w3.org/2000/svg" width="19.228" height="19.533" viewBox="0 0 19.228 19.533">
  <path id="Path_17" data-name="Path 17" d="M20.077,5.743a7.236,7.236,0,0,0-.447-2.37,4.775,4.775,0,0,0-1.112-1.732,4.726,4.726,0,0,0-1.7-1.126A6.951,6.951,0,0,0,14.483.061C13.454.011,13.127,0,10.516,0S7.578.011,6.552.057A6.934,6.934,0,0,0,4.219.511a4.686,4.686,0,0,0-1.706,1.13A4.817,4.817,0,0,0,1.405,3.369a7.254,7.254,0,0,0-.447,2.37C.909,6.785.9,7.116.9,9.768s.011,2.984.056,4.026a7.235,7.235,0,0,0,.447,2.37A4.825,4.825,0,0,0,2.513,17.9a4.727,4.727,0,0,0,1.7,1.126,6.952,6.952,0,0,0,2.333.454c1.025.046,1.352.057,3.964.057s2.938-.011,3.964-.057a6.932,6.932,0,0,0,2.333-.454,4.958,4.958,0,0,0,2.814-2.858,7.259,7.259,0,0,0,.447-2.37c.045-1.042.056-1.374.056-4.026S20.122,6.785,20.077,5.743Zm-1.732,7.975a5.426,5.426,0,0,1-.331,1.812,3.216,3.216,0,0,1-1.826,1.855,5.22,5.22,0,0,1-1.785.336c-1.014.046-1.319.057-3.885.057s-2.874-.011-3.885-.057a5.2,5.2,0,0,1-1.785-.336,2.956,2.956,0,0,1-1.1-.729,3.043,3.043,0,0,1-.718-1.122,5.446,5.446,0,0,1-.33-1.813c-.045-1.03-.056-1.339-.056-3.946s.011-2.919.056-3.945a5.423,5.423,0,0,1,.33-1.812A2.974,2.974,0,0,1,3.75,2.9a2.981,2.981,0,0,1,1.1-.729,5.222,5.222,0,0,1,1.785-.336c1.014-.046,1.319-.057,3.885-.057s2.874.011,3.885.057a5.2,5.2,0,0,1,1.785.336,2.953,2.953,0,0,1,1.1.729,3.041,3.041,0,0,1,.718,1.122,5.448,5.448,0,0,1,.331,1.812c.045,1.03.056,1.339.056,3.945S18.39,12.688,18.345,13.718Z" transform="translate(-0.898 0)"/>
  <path id="Path_18" data-name="Path 18" d="M129.692,124.281a4.666,4.666,0,1,0,4.513,4.664A4.591,4.591,0,0,0,129.692,124.281Zm0,7.689a3.027,3.027,0,1,1,2.928-3.025A2.978,2.978,0,0,1,129.692,131.97Z" transform="translate(-120.074 -119.176)"/>
  <path id="Path_19" data-name="Path 19" d="M364.779,89.7a1.259,1.259,0,1,1-1.259-1.259A1.259,1.259,0,0,1,364.779,89.7Z" transform="translate(-348.83 -85.1)"/>
</svg>
