<svg id="Group_209" data-name="Group 209" xmlns="http://www.w3.org/2000/svg" width="19.067" height="19.067" viewBox="0 0 19.067 19.067">
  <rect id="Rectangle_143" data-name="Rectangle 143" width="14.409" height="10.807" transform="translate(2.654 4.428)" fill="#111"/>
  <path id="spotify-1" d="M9.533,0a9.533,9.533,0,1,0,9.533,9.533A9.533,9.533,0,0,0,9.533,0Zm4.149,13.836a.652.652,0,0,1-.892.234,9.6,9.6,0,0,0-5.051-1.121,12.531,12.531,0,0,0-2.62.346.652.652,0,0,1-.346-1.257,13.574,13.574,0,0,1,2.89-.391,12.727,12.727,0,0,1,2.784.2,9.4,9.4,0,0,1,3,1.1A.652.652,0,0,1,13.682,13.836Zm1.212-2.517a.772.772,0,0,1-1.056.277,11.367,11.367,0,0,0-5.983-1.328,14.846,14.846,0,0,0-3.1.41.772.772,0,0,1-.409-1.489,16.075,16.075,0,0,1,3.423-.463,15.078,15.078,0,0,1,3.3.239,11.131,11.131,0,0,1,3.555,1.3A.772.772,0,0,1,14.894,11.318Zm.745-2.289a.943.943,0,0,1-.477-.13C10.338,6.081,4.08,7.757,4.017,7.774a.947.947,0,0,1-.5-1.826,19.716,19.716,0,0,1,4.2-.568,18.5,18.5,0,0,1,4.045.293,13.652,13.652,0,0,1,4.361,1.592.947.947,0,0,1-.479,1.765Z" transform="translate(0)" fill="#fbf5ee"/>
</svg>
