<svg id="youtube-1" xmlns="http://www.w3.org/2000/svg" width="27.898" height="19.533" viewBox="0 0 27.898 19.533">
  <path id="Path_21" data-name="Path 21" d="M27.323,80.057A3.5,3.5,0,0,0,24.864,77.6C22.681,77,13.949,77,13.949,77s-8.732,0-10.915.575A3.566,3.566,0,0,0,.574,80.057a39.476,39.476,0,0,0,0,13.42,3.5,3.5,0,0,0,2.459,2.459c2.206.6,10.915.6,10.915.6s8.732,0,10.915-.575A3.5,3.5,0,0,0,27.323,93.5a36.831,36.831,0,0,0,.574-6.71A34.958,34.958,0,0,0,27.323,80.057Z" transform="translate(0 -77.001)"/>
  <path id="Path_22" data-name="Path 22" d="M204.968,187.85l7.262-4.182-7.262-4.182Z" transform="translate(-193.8 -173.901)" fill="#f2f2f2"/>
</svg>
